<?xml version="1.0" standalone="no"?>
<!DOCTYPE svg PUBLIC "-//W3C//DTD SVG 1.1//EN" "http://www.w3.org/Graphics/SVG/1.1/DTD/svg11.dtd" >
<svg xmlns="http://www.w3.org/2000/svg">
<metadata></metadata>
<defs>
<font id="futuratregular" horiz-adv-x="1161" >
<font-face units-per-em="2048" ascent="1529" descent="-519" />
<missing-glyph horiz-adv-x="512" />
<glyph horiz-adv-x="2048" />
<glyph horiz-adv-x="2048" />
<glyph unicode="&#xd;" horiz-adv-x="2048" />
<glyph unicode=" "  horiz-adv-x="512" />
<glyph unicode="&#x09;" horiz-adv-x="512" />
<glyph unicode="&#xa0;" horiz-adv-x="512" />
<glyph unicode="!" horiz-adv-x="571" d="M184 81q0 42 30 72q29 29 72 29q41 0 71 -29q29 -30 29 -71q0 -43 -29 -72q-30 -30 -72 -30t-71 30q-30 30 -30 71zM210 277v1088h149v-1088h-149z" />
<glyph unicode="&#x22;" horiz-adv-x="675" d="M109 1365h165l-27 -549h-111zM401 1365h165l-27 -549h-111z" />
<glyph unicode="#" horiz-adv-x="1229" d="M100 433v123h234l35 286h-218v123h233l51 411l128 -18l-49 -393h288l51 411l128 -18l-49 -393h212v-123h-225l-35 -286h210v-123h-226l-54 -438l-128 18l52 420h-290l-55 -438l-128 18l53 420h-218zM464 556h288l35 286h-288z" />
<glyph unicode="$" d="M157 331l147 41q15 -68 33 -105q41 -81 139 -125q30 -13 72 -17v552q-117 49 -185 99q-136 98 -136 257q0 215 203 310q51 24 118 35v185h120v-186q78 -10 153 -59q82 -55 134 -148l-120 -78q-71 118 -167 140v-448q114 -50 183 -96q153 -103 153 -290q0 -162 -110 -281 q-87 -95 -226 -126v-199h-120v190q-140 4 -254 103q-104 94 -137 246zM380 1030q0 -116 168 -193v397q-35 -8 -55 -19q-52 -27 -84 -80q-29 -49 -29 -105zM668 137q68 26 108 68q75 79 75 185q0 115 -112 192q-27 19 -71 40v-485z" />
<glyph unicode="%" horiz-adv-x="1465" d="M68 1083q0 123 94 213q85 83 216 83q137 0 227 -106q72 -85 72 -192q0 -126 -94 -216q-86 -82 -211 -82q-143 0 -233 106q-71 85 -71 194zM188 1082q0 -75 54 -130q53 -54 130 -54q76 0 129 54q54 54 54 130q0 78 -54 130q-55 54 -132 54q-74 0 -127 -54 q-54 -54 -54 -130zM295 20l794 1372l80 -44l-795 -1374zM789 286q0 122 93 213q85 83 216 83q137 0 227 -107q71 -84 71 -191q0 -126 -93 -215q-86 -83 -211 -83q-143 0 -232 106q-71 85 -71 194zM909 285q0 -75 54 -130q53 -54 130 -54q76 0 129 54q54 54 54 130 q0 78 -54 130q-55 54 -132 54q-74 0 -127 -54q-54 -54 -54 -130z" />
<glyph unicode="&#x26;" horiz-adv-x="1303" d="M109 354q0 189 184 336q44 36 167 117q-41 54 -70 102q-65 103 -65 190q0 126 89 211q81 78 209 78q133 0 215 -87q75 -80 75 -188q0 -119 -104 -223q-40 -40 -136 -112l286 -367q79 82 155 180l110 -92q-68 -95 -174 -202l232 -297h-191l-148 190q-66 -60 -124 -101 q-161 -115 -315 -115q-182 0 -299 131q-96 107 -96 249zM258 361q0 -112 90 -190q67 -58 153 -58q143 0 351 191l-302 391l-20 -13q-129 -87 -175 -129q-97 -88 -97 -192zM470 1107q0 -62 54 -135q51 -69 61 -83q75 55 107 82q76 63 76 145q0 66 -46 104q-45 37 -102 37 q-71 0 -115 -53q-35 -42 -35 -97z" />
<glyph unicode="'" horiz-adv-x="382" d="M109 1365h165l-27 -549h-111z" />
<glyph unicode="(" horiz-adv-x="601" d="M171 567q0 286 60 584q41 201 111 351l130 -60q-154 -393 -154 -875q0 -483 154 -876l-130 -60q-70 150 -111 351q-60 298 -60 585z" />
<glyph unicode=")" horiz-adv-x="601" d="M130 -309q154 394 154 875q0 482 -154 876l130 60q70 -149 111 -351q60 -298 60 -585q0 -286 -60 -584q-41 -202 -111 -351z" />
<glyph unicode="*" d="M242 1198l42 130l239 -89l-11 255h137l-11 -254l239 88l43 -130l-246 -68l158 -200l-110 -80l-141 212l-141 -212l-111 80l158 200z" />
<glyph unicode="+" d="M98 633v126h419v412h126v-412h419v-126h-419v-412h-126v412h-419z" />
<glyph unicode="," horiz-adv-x="464" d="M48 -272l170 472l133 -49l-205 -462z" />
<glyph unicode="-" horiz-adv-x="371" d="M0 371v131h371v-131h-371z" />
<glyph unicode="." horiz-adv-x="465" d="M131 81q0 42 30 72q29 29 72 29q41 0 71 -29q29 -30 29 -72t-29 -72q-30 -29 -72 -29t-71 30q-30 30 -30 71z" />
<glyph unicode="/" horiz-adv-x="994" d="M-29 -314l893 1816l118 -55l-893 -1816z" />
<glyph unicode="0" d="M92 677q0 297 135 498q67 100 161.5 155t199.5 55q139 0 262 -112q117 -106 173 -279q45 -142 45 -309q0 -296 -135 -498q-64 -95 -163 -154q-92 -55 -190 -55q-146 0 -273 117q-110 101 -166 269q-49 146 -49 313zM241 677q0 -229 98 -399q92 -159 242 -159 q141 0 233 154q104 174 104 406q0 236 -95 402q-95 165 -249 165q-65 0 -125.5 -40t-103.5 -111q-104 -173 -104 -418z" />
<glyph unicode="1" d="M316 1223l80 142h299v-1365h-153v1223h-226z" />
<glyph unicode="2" d="M103 0l497 575q95 110 157 199q79 114 79 210q0 121 -92 197q-79 65 -182 65q-69 0 -130.5 -32t-96.5 -86q-35 -55 -45 -161h-153q15 151 69 234t144 132q96 52 212 52q182 0 308 -123q116 -115 116 -280q0 -145 -108 -294q-63 -87 -186 -227l-279 -319h572v-142h-882z " />
<glyph unicode="3" d="M133 354h147q13 -88 48 -133q34 -46 93.5 -74t121.5 -28q119 0 200 89q68 75 68 185q0 77 -36.5 138.5t-98.5 89.5q-56 26 -156 28v133q106 3 162 34q50 28 79.5 82t29.5 117q0 109 -77 177q-62 55 -158 55q-128 0 -187 -88q-27 -39 -43 -131h-150q20 128 63 200 q47 78 132 118t185 40q178 0 283 -111q102 -108 102 -256q0 -121 -69 -213q-39 -52 -106 -89q67 -32 110 -84q85 -103 85 -246q0 -195 -140 -310q-120 -99 -283 -99q-154 0 -267 88q-92 72 -123 183q-11 39 -15 105z" />
<glyph unicode="4" d="M39 224l852 1217v-1079h168v-138h-168v-224h-152v224h-700zM306 362h433v617z" />
<glyph unicode="5" d="M68 221l121 86q118 -188 308 -188q158 0 257 117q83 97 83 228q0 155 -111 256q-94 84 -226 84q-117 0 -264 -93l198 654h543v-142h-437l-88 -292q40 8 75 8q113 0 204 -43q117 -56 186 -171q70 -118 70 -259q0 -228 -165 -369q-140 -119 -336 -119q-269 0 -418 243z" />
<glyph unicode="6" d="M109 439q0 159 112 315l466 645l114 -86l-315 -437q67 19 126 19q175 0 296 -118q142 -139 142 -332q0 -96 -40.5 -187.5t-113.5 -158.5q-131 -121 -314 -121q-207 0 -347 149q-126 134 -126 312zM259 440q0 -133 94 -227q93 -94 227 -94t226 94q94 95 94 226 q0 135 -94 227q-95 94 -230 94q-129 0 -223 -94t-94 -226z" />
<glyph unicode="7" d="M121 48l774 1175h-745v142h1005l-915 -1397z" />
<glyph unicode="8" d="M175 376q0 230 203 334q-60 36 -97 85q-71 95 -71 215q0 161 116 273q105 102 267 102q178 0 288 -124q94 -106 94 -251q0 -118 -77 -217q-41 -52 -94 -83q64 -31 108 -81q90 -104 90 -248q0 -186 -132 -302q-114 -101 -278 -101q-96 0 -182.5 38t-144.5 106 q-90 106 -90 254zM325 381q0 -108 77 -185t187 -77q109 0 186 77q77 76 77 184q0 110 -77 184q-79 77 -190 77q-106 0 -183 -76q-77 -77 -77 -184zM355 1009q0 -98 70 -168q68 -70 167 -70t168 70q69 69 69 167q0 101 -69 169q-71 69 -171 69q-96 0 -164 -69 q-70 -71 -70 -168z" />
<glyph unicode="9" d="M110 920q0 96 40.5 187t113.5 157q132 121 315 121q207 0 346 -148q127 -134 127 -311q0 -157 -114 -314l-465 -645l-114 85l315 437q-67 -18 -125 -18q-176 0 -297 118q-142 138 -142 331zM260 926q0 -131 94 -226q93 -94 226 -94q134 0 228 94t94 226q0 135 -94 226 q-96 94 -232 94q-129 0 -222 -94q-94 -94 -94 -226z" />
<glyph unicode=":" horiz-adv-x="465" d="M131 81q0 42 30 72q29 29 72 29q41 0 71 -29q29 -30 29 -72t-29 -72q-30 -29 -72 -29t-71 30q-30 30 -30 71zM131 770q0 41 29 71q30 29 73 29q40 0 70 -29q29 -30 29 -71q0 -42 -29 -72q-30 -29 -71 -29q-42 0 -72 30q-29 29 -29 71z" />
<glyph unicode=";" horiz-adv-x="464" d="M48 -272l170 472l134 -49l-206 -462zM164 769q0 43 29 72q30 29 73 29q40 0 70 -29q29 -29 29 -71t-29 -71q-30 -30 -72 -30t-71 30q-29 29 -29 70z" />
<glyph unicode="&#x3c;" horiz-adv-x="1024" d="M68 624v133l887 416v-153l-723 -330l723 -331v-153z" />
<glyph unicode="=" d="M98 509v119h964v-119h-964zM98 764v119h964v-119h-964z" />
<glyph unicode="&#x3e;" horiz-adv-x="1024" d="M69 206v153l723 331l-723 330v153l887 -417v-133z" />
<glyph unicode="?" horiz-adv-x="893" d="M116 1070q0 145 110 235q92 76 219 76q157 0 253 -110q79 -90 79 -218q0 -81 -35 -152t-93 -111q-55 -37 -213 -82q-77 -22 -106 -58q-33 -41 -33 -93q0 -64 48 -108q41 -38 99 -38q91 0 127 76q16 33 21 99h146q-2 -105 -39 -169q-41 -72 -115 -110q-65 -34 -142 -34 q-132 0 -216 93q-76 84 -76 201q0 122 86 197q52 45 162 80q102 33 123 43q107 50 107 166q0 85 -54 136q-55 52 -133 52q-84 0 -137 -61q-42 -48 -42 -117q0 -32 12 -87h-150q-8 59 -8 94zM345 81q0 42 30 72q29 29 72 29q41 0 71 -29q29 -30 29 -72t-29 -71 q-30 -30 -72 -30t-71 30q-30 30 -30 71z" />
<glyph unicode="@" horiz-adv-x="1474" d="M51 684q0 153 59 288t168 234q203 183 485 183q148 0 278 -54.5t221 -155.5q151 -166 151 -400q0 -110 -37 -216.5t-100 -180.5q-37 -43 -89.5 -68.5t-103.5 -25.5q-109 0 -148 120q-48 -53 -85 -77q-72 -47 -165 -47q-149 0 -246 105q-98 106 -98 267q0 184 123 300 q107 101 259 101q149 0 241 -116l11 99h134l-55 -464q-7 -55 -7 -94q0 -65 55 -65q28 0 52 17q52 37 83 100q53 109 53 233q0 228 -154 365q-151 134 -373 134q-246 0 -414 -170q-165 -168 -165 -412q0 -232 148 -396q166 -186 458 -186q212 0 407 92q14 7 42 20l44 -120 q-242 -118 -490 -118q-232 0 -399 96q-153 89 -245 245q-98 167 -98 367zM496 651q0 -102 55 -167q56 -67 141 -67q100 0 171 87q73 89 73 209q0 93 -58 151q-59 60 -146 60q-96 0 -165 -75q-71 -78 -71 -198z" />
<glyph unicode="A" horiz-adv-x="1269" d="M14 0l629 1430l613 -1430h-167l-161 386h-583l-165 -386h-166zM407 528h461l-228 547z" />
<glyph unicode="B" horiz-adv-x="1085" d="M177 0v1365h248q205 0 309 -85q58 -49 92 -125t34 -160q0 -119 -63 -200q-24 -31 -72 -66q86 -25 141 -74q117 -103 117 -271q0 -179 -138 -291q-67 -55 -142 -73q-79 -20 -186 -20h-340zM330 142h174q120 0 173 21q80 32 122 105q32 56 32 121q0 62 -31.5 118t-82.5 84 q-77 42 -233 42h-154v-491zM330 763h114q97 0 142 19q68 30 101 99q24 49 24 112q0 116 -72 179q-59 51 -191 51h-118v-460z" />
<glyph unicode="C" horiz-adv-x="1323" d="M102 677q0 147 60.5 283.5t169.5 238.5q204 189 485 189q148 0 279 -60q52 -25 124 -75v-189q-87 83 -162 120q-123 61 -251 61q-119 0 -229.5 -53t-189.5 -149q-132 -159 -132 -367q0 -254 188 -416q163 -142 364 -142q151 0 291 84q51 30 121 95v-189 q-194 -133 -411 -133q-150 0 -288.5 63t-240.5 176q-178 200 -178 463z" />
<glyph unicode="D" horiz-adv-x="1297" d="M177 0v1365h280q165 0 283.5 -37.5t218.5 -120.5q235 -197 235 -524t-240 -525q-123 -103 -263 -135q-102 -23 -236 -23h-278zM330 142h133q242 0 391 125q186 156 186 415q0 125 -48.5 234t-136.5 183q-148 124 -392 124h-133v-1081z" />
<glyph unicode="E" horiz-adv-x="987" d="M177 0v1365h707v-142h-554v-405h539v-142h-539v-534h554v-142h-707z" />
<glyph unicode="F" horiz-adv-x="887" d="M177 0v1365h621v-142h-468v-405h453v-142h-453v-676h-153z" />
<glyph unicode="G" horiz-adv-x="1552" d="M101 678q0 158 66.5 300.5t187.5 243.5q199 166 460 166q236 0 418 -139q68 -52 157 -158l-112 -102q-70 92 -129 139q-146 117 -334 117q-115 0 -222.5 -47t-187.5 -133q-150 -162 -150 -388q0 -243 176 -406q166 -153 373 -153q182 0 328 119q119 98 145 239q5 26 8 67 h-405v142h569q0 -156 -19 -240q-44 -204 -227 -338q-179 -132 -402 -132q-150 0 -288.5 64t-239.5 180q-172 198 -172 459z" />
<glyph unicode="H" horiz-adv-x="1359" d="M177 0v1365h153v-555h698v555h153v-1365h-153v668h-698v-668h-153z" />
<glyph unicode="I" horiz-adv-x="508" d="M177 0v1365h153v-1365h-153z" />
<glyph unicode="J" horiz-adv-x="629" d="M-96 -40l85 117q34 -31 55 -44q48 -32 103 -32q80 0 121 70q30 53 30 191v1103h153v-1103q0 -134 -23 -203q-39 -116 -142 -168q-63 -33 -136 -33q-121 0 -246 102z" />
<glyph unicode="K" horiz-adv-x="1165" d="M177 0v1365h153v-586l582 586h204l-640 -636l661 -729h-209l-559 626l-39 -38v-588h-153z" />
<glyph unicode="L" horiz-adv-x="733" d="M177 0v1365h153v-1223h375v-142h-528z" />
<glyph unicode="M" horiz-adv-x="1767" d="M130 0l226 1443l524 -1154l536 1154l212 -1443h-156l-128 950l-465 -1007l-459 1007l-134 -950h-156z" />
<glyph unicode="N" horiz-adv-x="1571" d="M177 0v1422l1064 -1114v1057h153v-1427l-1064 1114v-1052h-153z" />
<glyph unicode="O" horiz-adv-x="1626" d="M102 684q0 297 225 509q206 195 498 195q142 0 276.5 -61.5t236.5 -172.5q185 -202 185 -473q0 -148 -61 -284t-172 -237q-205 -185 -478 -185q-150 0 -290.5 63t-242.5 176q-177 196 -177 470zM256 680q0 -243 174 -407q165 -155 383 -155q118 0 229 51t191 143 q136 155 136 373q0 235 -170 403q-160 157 -395 157q-116 0 -224.5 -51t-187.5 -144q-136 -158 -136 -370z" />
<glyph unicode="P" horiz-adv-x="937" d="M177 0v1365h248q163 0 249 -37q124 -53 183 -175q38 -80 38 -172q0 -80 -30 -154.5t-82 -123.5q-111 -105 -320 -105h-133v-598h-153zM330 737h124q144 0 218 67q73 67 73 179q0 116 -75 179q-73 61 -227 61h-113v-486z" />
<glyph unicode="Q" horiz-adv-x="1626" d="M102 678q0 146 56.5 279t162.5 233q100 95 228 146.5t264 51.5q150 0 290.5 -64t242.5 -178q177 -199 177 -473q0 -194 -100 -355q-34 -54 -96 -124l204 -208h-194l-115 123q-185 -134 -414 -134q-149 0 -289 63.5t-242 176.5q-175 195 -175 463zM256 678 q0 -244 171 -404q166 -155 380 -155q171 0 308 98l-329 332h200l234 -246q71 79 102 147q47 104 47 227q0 241 -163 405q-164 163 -394 163q-124 0 -236.5 -52.5t-191.5 -148.5q-128 -154 -128 -366z" />
<glyph unicode="R" horiz-adv-x="1029" d="M177 0v1365h221q117 0 192.5 -17t134.5 -57q74 -50 113 -134q38 -82 38 -175q0 -201 -148 -303q-85 -58 -195 -68l434 -611h-186l-412 599h-39v-599h-153zM330 733h95q139 0 212 55q89 68 89 194q0 134 -99 197q-71 44 -206 44h-91v-490z" />
<glyph unicode="S" horiz-adv-x="1059" d="M102 328l148 41q20 -93 55 -141q37 -51 96.5 -80.5t127.5 -29.5q118 0 198 83q76 78 76 186q0 123 -113 194q-52 33 -242 118q-151 69 -212 146q-64 81 -64 191q0 173 136 273q108 79 246 79q230 0 352 -213l-120 -79q-40 63 -71 90q-65 59 -163 59q-105 0 -168 -68 q-58 -62 -58 -143q0 -89 85 -147q50 -33 107 -58l130 -57q167 -74 234 -157q75 -92 75 -220q0 -190 -143 -315q-121 -105 -291 -105q-215 0 -339 165q-55 73 -82 188z" />
<glyph unicode="T" horiz-adv-x="870" d="M27 1223v142h815v-142h-332v-1223h-153v1223h-330z" />
<glyph unicode="U" horiz-adv-x="1328" d="M177 487v878h153v-836q0 -129 15 -187q26 -102 119 -164q91 -60 199 -60q126 0 225 78q81 65 100 173q9 52 9 160v836h153v-878q0 -111 -20.5 -185.5t-68.5 -137.5q-70 -91 -181 -142q-103 -47 -216 -47q-164 0 -298 93q-127 89 -167 227q-22 74 -22 192z" />
<glyph unicode="V" horiz-adv-x="1135" d="M14 1365h167l388 -1041l387 1041h166l-555 -1446z" />
<glyph unicode="W" horiz-adv-x="1957" d="M14 1365h167l363 -1024l428 1094l404 -1094l401 1024h166l-572 -1436l-402 1092l-431 -1093z" />
<glyph unicode="X" horiz-adv-x="1028" d="M27 0l404 706l-368 659h172l283 -514l289 514h175l-377 -659l396 -706h-171l-314 560l-317 -560h-172z" />
<glyph unicode="Y" horiz-adv-x="1081" d="M14 1365h176l348 -609l353 609h177l-454 -778v-587h-153v587z" />
<glyph unicode="Z" horiz-adv-x="1094" d="M48 0l745 1223h-649v142h902l-745 -1223h726v-142h-979z" />
<glyph unicode="[" horiz-adv-x="597" d="M164 -360v1854h344v-138h-194v-1578h194v-138h-344z" />
<glyph unicode="\" horiz-adv-x="994" d="M11 1447l118 55l893 -1816l-118 -55z" />
<glyph unicode="]" horiz-adv-x="597" d="M89 -222h194v1578h-194v138h344v-1854h-344v138z" />
<glyph unicode="^" horiz-adv-x="1024" d="M50 745l361 625h202l361 -625h-167l-296 502l-295 -502h-166z" />
<glyph unicode="_" horiz-adv-x="1024" d="M0 -132h1024v-141h-1024v141z" />
<glyph unicode="`" horiz-adv-x="1024" d="M233 1275l151 68l216 -296l-91 -51z" />
<glyph unicode="a" horiz-adv-x="1073" d="M85 427q0 215 135 339q115 105 272 105q176 0 296 -141v121h146v-851h-146v118q-120 -143 -293 -143q-190 0 -309 145q-101 122 -101 307zM234 426q0 -148 89 -239q78 -80 193 -80q134 0 217 106q65 83 65 216q0 150 -89 232q-84 78 -199 78q-120 0 -202 -95 q-74 -86 -74 -218z" />
<glyph unicode="b" horiz-adv-x="1073" d="M139 0v1494h146v-765q121 141 297 141q185 0 304 -140q102 -119 102 -304q0 -213 -133 -340q-116 -111 -276 -111q-177 0 -294 143v-118h-146zM275 426q0 -152 89 -240q80 -79 193 -79q134 0 214 103q68 89 68 217q0 149 -96 239q-77 72 -189 72q-125 0 -212 -101 q-67 -78 -67 -211z" />
<glyph unicode="c" horiz-adv-x="892" d="M85 419q0 193 137 328q125 123 316 123q140 0 264 -81v-192q-67 75 -117 102q-71 39 -150 39q-137 0 -223 -101q-78 -90 -78 -215q0 -131 84 -223q84 -91 214 -91q100 0 184 59q36 26 91 90v-193q-136 -89 -271 -89q-217 0 -348 159q-103 125 -103 285z" />
<glyph unicode="d" horiz-adv-x="1073" d="M85 426q0 214 136 339q114 105 270 105q176 0 297 -141v765h146v-1494h-146v118q-117 -143 -294 -143q-188 0 -308 145q-101 122 -101 306zM234 425q0 -147 89 -239q78 -79 193 -79q135 0 217 105q65 84 65 217q0 149 -89 231q-83 78 -199 78q-120 0 -202 -95 q-74 -86 -74 -218z" />
<glyph unicode="e" horiz-adv-x="986" d="M85 420q0 207 121 332q114 118 291 118q160 0 271 -100q134 -120 134 -347v-28h-663q4 -87 36 -147q36 -67 98 -104t136 -37q108 0 181 71q35 33 81 108l123 -69q-51 -89 -105 -137q-118 -105 -285 -105q-204 0 -324 148q-95 118 -95 297zM248 518h500q-14 71 -49 119 q-75 101 -200 101q-131 0 -209 -113q-31 -46 -42 -107z" />
<glyph unicode="f" horiz-adv-x="490" d="M59 716v135h81v360q0 150 50 215q69 91 202 91q48 0 107 -18v-148q-56 21 -97 21q-67 0 -93 -41q-23 -36 -23 -153v-327h213v-135h-213v-716h-146v716h-81z" />
<glyph unicode="g" horiz-adv-x="1075" d="M85 423q0 207 129 333q118 116 283 116q174 0 293 -141v120h146v-832q0 -158 -28 -235q-50 -135 -173 -204q-98 -54 -219 -54q-189 0 -303 113q-105 106 -112 278h145q7 -94 40 -144q33 -54 95.5 -84.5t135.5 -30.5q147 0 218 105q55 80 55 231v124q-124 -141 -300 -141 q-178 0 -299 137q-106 122 -106 309zM234 419q0 -138 77 -220q83 -90 203 -90q132 0 217 105q66 80 66 212q0 155 -93 239q-84 75 -196 75q-133 0 -215 -114q-59 -82 -59 -207z" />
<glyph unicode="h" horiz-adv-x="961" d="M139 0v1494h146v-743q40 47 73 69q73 50 171 50q76 0 141.5 -31.5t101.5 -84.5q50 -73 50 -227v-527h-146v517q0 102 -28 151q-41 70 -150 70q-130 0 -179 -101q-34 -70 -34 -212v-425h-146z" />
<glyph unicode="i" horiz-adv-x="425" d="M108 1171q0 43 31 74q31 30 75 30q42 0 72 -30q31 -31 31 -74q0 -44 -31 -74q-30 -31 -74 -31q-43 0 -73 31q-31 31 -31 74zM139 0v851h146v-851h-146z" />
<glyph unicode="j" horiz-adv-x="425" d="M108 1171q0 43 31 74q31 30 75 30q42 0 72 -30q31 -31 31 -74q0 -44 -31 -74q-30 -31 -74 -31q-43 0 -73 31q-31 31 -31 74zM139 -479v1330h146v-1330h-146z" />
<glyph unicode="k" horiz-adv-x="862" d="M139 0v1494h146v-957l308 314h194l-364 -362l433 -489h-191l-344 387l-36 -37v-350h-146z" />
<glyph unicode="l" horiz-adv-x="425" d="M139 0v1494h146v-1494h-146z" />
<glyph unicode="m" horiz-adv-x="1393" d="M139 0v851h146v-91q84 112 210 112q158 0 233 -139q81 139 249 139q72 0 134 -31t95 -84q47 -74 47 -217v-540h-146v516q0 107 -28 157q-37 66 -124 66q-183 0 -183 -267v-472h-146v505q0 234 -157 234q-47 0 -89.5 -25.5t-62.5 -66.5q-32 -63 -32 -184v-463h-146z" />
<glyph unicode="n" horiz-adv-x="960" d="M139 0v851h146v-103q40 49 72 72q71 51 172 51q77 0 142.5 -31.5t100.5 -85.5q48 -73 48 -226v-528h-146v503q0 119 -28 165q-43 71 -150 71q-128 0 -176 -101q-35 -72 -35 -213v-425h-146z" />
<glyph unicode="o" horiz-adv-x="1068" d="M85 426q0 191 140 323q128 121 317 121q193 0 326 -146q115 -126 115 -301q0 -204 -149 -336q-126 -112 -299 -112q-210 0 -344 156q-106 125 -106 295zM234 422q0 -142 89 -231q84 -84 210 -84q147 0 235 109q66 83 66 209q0 141 -90 229q-85 84 -217 84 q-140 0 -226 -110q-67 -85 -67 -206z" />
<glyph unicode="p" horiz-adv-x="1073" d="M139 -479v1330h145v-120q121 140 294 140q190 0 309 -145q101 -121 101 -306q0 -215 -135 -339q-115 -106 -271 -106q-175 0 -297 144v-598h-146zM275 420q0 -150 90 -235q84 -78 195 -78q125 0 205 95q74 87 74 222q0 143 -89 236q-77 79 -196 79q-129 0 -212 -106 q-67 -85 -67 -213z" />
<glyph unicode="q" horiz-adv-x="1073" d="M85 420q0 214 133 340q115 111 276 111q178 0 294 -140v120h146v-1330h-146v598q-122 -144 -297 -144q-184 0 -304 140q-102 120 -102 305zM234 421q0 -152 96 -242q78 -72 184 -72q131 0 218 102q66 77 66 215q0 147 -89 236q-79 79 -198 79q-127 0 -208 -104 q-69 -88 -69 -214z" />
<glyph unicode="r" horiz-adv-x="603" d="M139 0v851h146v-92q42 51 67 72q50 41 125 41q63 0 130 -37l-69 -132q-45 30 -85 30q-41 0 -78.5 -21.5t-56.5 -55.5q-33 -61 -33 -208v-448h-146z" />
<glyph unicode="s" horiz-adv-x="717" d="M71 192l128 54q25 -51 44 -76q47 -63 127 -63q71 0 110 48q30 38 30 87q0 52 -38 87q-24 22 -100 55q-117 50 -170 88q-75 55 -75 159q0 111 80 178q73 61 168 61q154 0 233 -154l-121 -63q-45 85 -118 85q-47 0 -78 -34q-24 -25 -24 -61q0 -41 36 -69q27 -21 101 -52 q115 -48 162 -82q93 -68 93 -187q0 -125 -91 -205q-83 -73 -200 -73q-213 0 -297 217z" />
<glyph unicode="t" horiz-adv-x="439" d="M51 716v135h89v305h146v-305h150v-135h-150v-716h-146v716h-89z" />
<glyph unicode="u" horiz-adv-x="953" d="M139 338v513h146v-497q0 -110 26 -159q22 -41 66.5 -64.5t98.5 -23.5q55 0 99 23.5t66 64.5q26 49 26 159v497h146v-513q0 -121 -30 -185q-42 -92 -137 -140q-76 -38 -170 -38q-164 0 -260 107q-51 57 -66 126q-11 54 -11 130z" />
<glyph unicode="v" horiz-adv-x="867" d="M16 851h164l254 -572l253 572h163l-417 -906z" />
<glyph unicode="w" horiz-adv-x="1397" d="M16 851h165l251 -575l265 641l265 -641l255 575h164l-422 -910l-262 634l-264 -634z" />
<glyph unicode="x" horiz-adv-x="931" d="M16 0l363 454l-310 397h178l222 -290l222 290h181l-312 -397l354 -454h-176l-269 347l-271 -347h-182z" />
<glyph unicode="y" horiz-adv-x="942" d="M16 851h169l300 -609l275 609h165l-628 -1330h-165l275 560z" />
<glyph unicode="z" horiz-adv-x="942" d="M16 0l615 716h-501v135h792l-612 -716h586v-135h-880z" />
<glyph unicode="{" horiz-adv-x="597" d="M104 510v121q54 12 86 52q29 36 31 129v400q0 155 67 221q61 60 192 60q1 0 53 -1v-128q-59 0 -78 -4q-48 -11 -65 -43q-19 -35 -20 -131v-383q-1 -113 -34 -163q-26 -41 -90 -75q71 -38 103 -106q20 -43 21 -136v-370q2 -99 13 -122q14 -34 32 -44q24 -13 46 -17 q16 -2 72 -2v-128q-39 -1 -58 -1q-131 0 -189 63q-65 71 -65 239v377q0 102 -33 142q-32 38 -84 50z" />
<glyph unicode="|" horiz-adv-x="1024" d="M435 -341v1706h154v-1706h-154z" />
<glyph unicode="}" horiz-adv-x="597" d="M63 -231q18 -1 26 -1q71 0 100 27q36 33 36 152v383q1 113 34 163q26 42 90 75q-71 38 -103 106q-20 43 -21 136v370q-2 99 -13 122q-14 34 -32 44q-23 13 -46 17q-16 2 -71 2v128q39 1 58 1q130 0 188 -63q65 -71 65 -239v-377q0 -102 33 -142q33 -38 85 -50v-121 q-54 -12 -87 -52q-29 -35 -31 -129v-400q0 -156 -67 -222q-61 -60 -188 -60q-22 0 -56 2v128z" />
<glyph unicode="~" horiz-adv-x="1365" d="M190 1249q42 85 75 129q81 107 206 107q76 0 229 -70q104 -47 135 -55q33 -9 63 -9q71 0 120 49q30 30 66 89l91 -53q-56 -112 -113 -161q-81 -70 -183 -70q-35 0 -90 17q-56 18 -196 81q-81 36 -135 36q-98 0 -179 -147z" />
<glyph unicode="&#xa1;" horiz-adv-x="568" d="M184 965q0 43 30 72t72 29q40 0 69 -29q30 -30 30 -71q0 -42 -30 -72q-29 -29 -70 -29q-42 0 -71 29q-30 30 -30 71zM210 -319v1088h147v-1088h-147z" />
<glyph unicode="&#xa2;" d="M201 693q0 166 106 293q109 131 275 152v193h119v-190q118 -10 217 -79v-192q-102 119 -217 138v-623q120 18 222 145v-193q-118 -82 -222 -86v-202h-119v205q-89 12 -160 54q-115 69 -174 186q-47 93 -47 199zM350 695q0 -172 136 -268q41 -28 96 -40v617 q-43 -9 -75 -27q-76 -45 -118 -123q-39 -72 -39 -159z" />
<glyph unicode="&#xa3;" d="M108 53q109 170 265 175q58 90 58 172q0 35 -13 85h-229v116h179q-43 85 -58 116q-33 62 -52 105q-38 86 -38 183q0 137 91 242q120 137 313 137q139 0 241 -77q145 -110 154 -328l-150 -40q-6 96 -22 146q-20 59 -65 98q-64 54 -157 54q-105 0 -176 -66 q-75 -70 -75 -177q0 -77 49 -176q31 -64 61 -119q38 -70 51 -98h257v-116h-217q12 -46 12 -79q0 -91 -59 -198q79 -27 119 -41q111 -40 154 -40q59 0 105 51q25 27 58 85l124 -74q-108 -211 -282 -211q-76 0 -225 54q-141 50 -192 50q-59 0 -105 -39q-24 -19 -57 -69z" />
<glyph unicode="&#xa4;" horiz-adv-x="1365" d="M108 1221l85 85l195 -194q52 35 89 55q91 51 207 51q122 0 229 -64q25 -14 63 -41l194 193l85 -85l-193 -193q32 -48 53 -85q50 -93 50 -207q0 -117 -62 -224q-15 -25 -41 -64l196 -196l-84 -84l-195 195q-42 -29 -76 -48q-98 -57 -217 -57q-113 0 -221 58q-30 16 -75 44 l-193 -192l-84 84l193 193q-32 46 -53 84q-52 96 -52 209q0 119 61 225q15 26 41 63zM340 738q0 -143 101 -244t242 -101q142 0 244 102q100 100 100 241q0 146 -100 245q-103 102 -247 102q-139 0 -240 -102q-100 -101 -100 -243z" />
<glyph unicode="&#xa5;" d="M54 1365h176l348 -609l353 609h176l-271 -465h223v-116h-290l-103 -177h393v-116h-405v-491h-153v491h-399v116h388l-102 177h-286v116h219z" />
<glyph unicode="&#xa6;" horiz-adv-x="1024" d="M435 314h154v-655h-154v655zM435 683v682h154v-682h-154z" />
<glyph unicode="&#xa7;" d="M207 570q0 229 205 322q-63 36 -94 67q-79 82 -79 209q0 152 108 248q47 42 115 67t136 25q121 0 217 -69q121 -86 133 -317h-144q-3 103 -35 157q-50 89 -170 89q-94 0 -153 -57q-59 -58 -59 -155q0 -91 71 -143q39 -29 87 -46q22 -8 92 -33q144 -50 209 -105 q108 -90 108 -257q0 -133 -82 -226q-41 -47 -123 -95q66 -39 96 -69q76 -78 76 -215q0 -151 -93 -244q-99 -99 -266 -99q-130 0 -222 68q-90 65 -116 192q-10 48 -13 121h148q6 -111 38 -158q54 -81 169 -81q101 0 153 57q52 56 52 148q0 113 -88 169q-42 27 -183 81 q-134 52 -192 104q-101 91 -101 245zM359 573q0 -91 65 -158q64 -65 156 -65t156 65q65 66 65 158q0 94 -65 158q-66 65 -159 65q-89 0 -153 -65q-65 -66 -65 -158z" />
<glyph unicode="&#xa8;" horiz-adv-x="1024" d="M232 1146q0 43 30 73t73 30q42 0 72 -30t30 -72q0 -43 -30 -73q-31 -30 -73 -30t-72 30t-30 72zM587 1146q0 43 30 73q31 30 74 30q41 0 71 -30t30 -72q0 -43 -30 -73t-72 -30q-43 0 -73 30t-30 72z" />
<glyph unicode="&#xa9;" horiz-adv-x="1516" d="M52 688q0 305 234 518q199 182 484 182q142 0 277 -61.5t235 -172.5q182 -200 182 -471q0 -150 -61 -287t-173 -238q-201 -181 -472 -181q-150 0 -287.5 61t-237.5 172q-181 201 -181 478zM167 683q0 -126 51 -240.5t145 -198.5q168 -152 395 -152q125 0 240 51t199 144 q152 169 152 400q0 255 -196 434q-167 152 -404 152q-120 0 -232.5 -51.5t-197.5 -144.5q-152 -167 -152 -394zM362 674q0 185 139 311q123 111 284 111q136 0 240 -78q11 -8 47 -38v-175q-67 79 -87 98q-84 78 -200 78q-134 0 -228 -109q-76 -87 -76 -201q0 -124 88 -210 q96 -94 217 -94q50 0 105 21t94 54q18 16 87 94v-171q-140 -111 -283 -111q-171 0 -298 122q-129 123 -129 298z" />
<glyph unicode="&#xaa;" horiz-adv-x="733" d="M83 1105q0 129 85 204q71 63 170 63q108 0 180 -78v66h97v-512h-97v65q-72 -80 -178 -80q-118 0 -193 88q-64 73 -64 184zM181 1105q0 -87 55 -140q47 -46 116 -46q82 0 132 61q40 49 40 127q0 87 -54 136q-51 45 -121 45q-73 0 -123 -55q-45 -50 -45 -128z" />
<glyph unicode="&#xab;" horiz-adv-x="883" d="M75 437l305 384l96 -75l-244 -309l244 -300l-95 -76zM380 437l305 384l95 -75l-243 -309l243 -300l-95 -76z" />
<glyph unicode="&#xac;" horiz-adv-x="1024" d="M68 403v143h887v-546h-154v403h-733z" />
<glyph unicode="&#xad;" horiz-adv-x="371" d="M0 371v131h371v-131h-371z" />
<glyph unicode="&#xae;" horiz-adv-x="1516" d="M52 688q0 305 234 518q199 182 484 182q142 0 277 -61.5t235 -172.5q182 -200 182 -471q0 -150 -61 -287t-173 -238q-201 -181 -472 -181q-150 0 -287.5 61t-237.5 172q-181 201 -181 478zM167 683q0 -126 51 -240.5t145 -198.5q168 -152 395 -152q125 0 240 51t199 144 q152 169 152 400q0 255 -196 434q-167 152 -404 152q-120 0 -232.5 -51.5t-197.5 -144.5q-152 -167 -152 -394zM579 266v819h141q116 0 179 -44q90 -63 90 -189q0 -106 -69 -171q-44 -42 -119 -54l250 -361h-143l-211 309v-309h-118zM696 734h38q136 0 136 119q0 66 -41 96 q-32 23 -105 23h-28v-238z" />
<glyph unicode="&#xaf;" horiz-adv-x="1024" d="M0 1631v138h1024v-138h-1024z" />
<glyph unicode="&#xb0;" d="M307 1112q0 116 80 193q83 80 197 80q108 0 189 -80q80 -78 80 -192t-80 -193q-80 -80 -193 -80t-193 80q-80 79 -80 192zM416 1113q0 -68 48 -116t116 -48t116 48t48 116q0 69 -48 115q-50 48 -118 48q-65 0 -114 -48q-48 -47 -48 -115z" />
<glyph unicode="&#xb1;" d="M99 0v126h964v-126h-964zM99 633v126h419v412h126v-412h419v-126h-419v-398h-126v398h-419z" />
<glyph unicode="&#xb2;" horiz-adv-x="792" d="M85 546l318 350q59 65 98 118q48 65 48 120q0 69 -55 112q-47 36 -108 36q-91 0 -136 -67q-22 -32 -28 -98h-108q10 99 45 149q77 111 226 111q116 0 196 -74q74 -70 74 -171q0 -86 -69 -177q-36 -48 -115 -135l-163 -177h346v-97h-569z" />
<glyph unicode="&#xb3;" horiz-adv-x="792" d="M112 769h105q8 -56 29 -82q46 -57 129 -57q70 0 118 50q41 42 41 105q0 95 -80 128q-35 15 -101 17v91q69 1 104 19q64 34 64 111q0 61 -45 98q-37 31 -94 31q-76 0 -110 -48q-16 -23 -27 -80h-107q13 84 42 129q62 96 202 96q113 0 180 -67q65 -66 65 -156 q0 -57 -28 -107q-17 -31 -70 -70q111 -72 111 -195q0 -119 -89 -189q-77 -59 -180 -59q-98 0 -170 53q-80 59 -89 182z" />
<glyph unicode="&#xb4;" horiz-adv-x="1024" d="M424 1047l216 296l151 -68l-276 -279z" />
<glyph unicode="&#xb5;" horiz-adv-x="953" d="M140 -479v1330h146v-519q0 -65 13 -106q17 -56 66 -88q48 -31 112 -31q54 0 98.5 23.5t66.5 64.5q26 49 26 159v497h146v-513q0 -121 -29 -185q-43 -91 -138 -139q-75 -39 -165 -39q-114 0 -203 64l7 -518h-146z" />
<glyph unicode="&#xb6;" d="M83 1012q0 120 58 209q94 144 339 144h586l-68 -119h-90v-1448h-130v1448h-214v-1448h-130v874q-18 -1 -28 -1q-102 0 -182 51q-66 43 -103 119q-38 77 -38 171z" />
<glyph unicode="&#xb7;" horiz-adv-x="461" d="M130 437q0 42 30 72q29 29 72 29q41 0 71 -29q29 -29 29 -72q0 -42 -29 -72q-30 -29 -72 -29t-71 30q-30 30 -30 71z" />
<glyph unicode="&#xb8;" horiz-adv-x="1024" d="M372 -363l172 267l135 -55l-206 -263z" />
<glyph unicode="&#xb9;" horiz-adv-x="792" d="M221 1268l57 97h196v-819h-108v722h-145z" />
<glyph unicode="&#xba;" horiz-adv-x="734" d="M85 1105q0 114 88 195q80 72 199 72q121 0 205 -88q72 -75 72 -181q0 -123 -94 -203q-79 -67 -188 -67q-131 0 -215 94q-67 75 -67 178zM183 1103q0 -83 55 -135q51 -49 128 -49q90 0 144 63q41 49 41 123q0 83 -55 134q-52 48 -133 48q-86 0 -138 -64q-42 -50 -42 -120z " />
<glyph unicode="&#xbb;" horiz-adv-x="883" d="M102 137l244 300l-244 309l95 75l306 -384l-306 -376zM407 137l243 300l-243 309l95 75l305 -384l-305 -376z" />
<glyph unicode="&#xbc;" horiz-adv-x="1761" d="M193 1268l57 97h196v-819h-108v722h-145zM443 21l795 1371l79 -44l-795 -1375zM1044 132l549 747v-651h103v-96h-103v-132h-109v132h-440zM1236 228h248v336z" />
<glyph unicode="&#xbd;" horiz-adv-x="1761" d="M193 1268l57 97h196v-819h-108v722h-145zM443 21l795 1371l79 -44l-795 -1375zM1081 0l318 351q60 65 98 117q48 65 48 120q0 69 -55 112q-47 36 -108 36q-92 0 -136 -67q-22 -32 -28 -98h-108q10 99 45 149q77 112 226 112q116 0 195 -74q75 -70 75 -172q0 -86 -69 -177 q-37 -49 -115 -135l-163 -177h346v-97h-569z" />
<glyph unicode="&#xbe;" horiz-adv-x="1761" d="M84 769h105q8 -56 29 -82q46 -57 129 -57q70 0 118 50q41 42 41 105q0 95 -80 128q-35 15 -101 17v91q69 1 104 19q64 34 64 111q0 61 -45 98q-37 31 -94 31q-76 0 -110 -48q-16 -23 -27 -80h-107q13 84 42 129q62 96 202 96q113 0 180 -67q65 -66 65 -156 q0 -57 -28 -107q-17 -31 -70 -70q111 -72 111 -195q0 -119 -89 -189q-77 -59 -180 -59q-98 0 -170 53q-80 59 -89 182zM444 21l794 1371l79 -44l-794 -1375zM1045 132l549 747v-651h102v-96h-102v-132h-109v132h-440zM1237 228h248v336z" />
<glyph unicode="&#xbf;" horiz-adv-x="893" d="M116 -11q0 81 34.5 152t93.5 111q54 36 212 82q76 22 105 58q33 41 33 93q0 64 -47 108q-41 38 -99 38q-90 0 -127 -76q-16 -33 -21 -99h-146q2 105 39 169q41 72 116 111q65 33 141 33q132 0 217 -93q76 -85 76 -201q0 -123 -86 -197q-52 -45 -162 -80 q-102 -33 -123 -43q-107 -50 -107 -166q0 -86 54 -137q55 -52 132 -52q84 0 137 62q42 48 42 117q0 32 -11 88h149q9 -58 9 -95q0 -145 -110 -236q-91 -76 -219 -76q-157 0 -253 110q-79 90 -79 219zM345 961q0 44 29 72q31 30 74 30q40 0 69 -30q30 -30 30 -71t-30 -72 q-29 -29 -71 -29t-72 29q-29 30 -29 71z" />
<glyph unicode="&#xc0;" horiz-adv-x="1269" d="M14 0l629 1430l613 -1430h-167l-161 386h-583l-165 -386h-166zM372 1715l137 91l245 -265l-88 -65zM407 528h461l-228 547z" />
<glyph unicode="&#xc1;" horiz-adv-x="1269" d="M14 0l629 1430l613 -1430h-167l-161 386h-583l-165 -386h-166zM407 528h461l-228 547zM530 1541l245 265l137 -91l-294 -239z" />
<glyph unicode="&#xc2;" horiz-adv-x="1269" d="M14 0l629 1430l613 -1430h-167l-161 386h-583l-165 -386h-166zM362 1561l285 243l288 -244l-108 -83l-180 155l-179 -155zM407 528h461l-228 547z" />
<glyph unicode="&#xc3;" horiz-adv-x="1269" d="M14 0l629 1430l613 -1430h-167l-161 386h-583l-165 -386h-166zM346 1597q73 146 181 146q47 0 132 -43q79 -41 112 -41q50 0 94 87l87 -66q-71 -148 -185 -148q-51 0 -135 43q-82 41 -115 41q-30 0 -53 -32q-10 -14 -30 -56zM407 528h461l-228 547z" />
<glyph unicode="&#xc4;" horiz-adv-x="1269" d="M14 0l629 1430l613 -1430h-167l-161 386h-583l-165 -386h-166zM346 1634q0 43 31 73q31 31 75 31q42 0 72 -31q31 -30 31 -73q0 -44 -31 -74q-30 -31 -74 -31q-43 0 -73 31q-31 31 -31 74zM407 528h461l-228 547zM735 1634q0 43 31 73q31 31 75 31q42 0 72 -31 q31 -30 31 -73q0 -44 -31 -74q-30 -31 -74 -31q-43 0 -73 31q-31 31 -31 74z" />
<glyph unicode="&#xc5;" horiz-adv-x="1269" d="M14 0l629 1430l613 -1430h-167l-161 386h-583l-165 -386h-166zM407 528h461l-228 547zM456 1650q0 77 55 131t133 54q75 0 130 -54q54 -54 54 -131t-54 -132q-55 -54 -132 -54q-78 0 -131 54q-55 55 -55 132zM556 1650q0 -36 25 -61t61 -25q35 0 61 25q25 25 25 60 q0 37 -25 61q-26 25 -62 25q-35 0 -60 -25t-25 -60z" />
<glyph unicode="&#xc6;" horiz-adv-x="1840" d="M27 0l608 1365h600l60 -142h-552l171 -408h538l62 -142h-538l221 -531h555l60 -142h-713l-161 382h-582l-162 -382h-167zM422 524h456l-226 537z" />
<glyph unicode="&#xc7;" horiz-adv-x="1323" d="M102 677q0 147 60.5 283.5t169.5 238.5q204 189 485 189q148 0 279 -61q51 -24 124 -74v-189q-87 83 -162 120q-123 61 -251 61q-119 0 -229.5 -53t-189.5 -149q-132 -159 -132 -367q0 -254 188 -416q163 -142 364 -142q151 0 291 84q51 30 121 95v-189 q-194 -133 -411 -133q-150 0 -288.5 63t-240.5 176q-178 200 -178 463zM557 -374l184 278l146 -66l-226 -265z" />
<glyph unicode="&#xc8;" horiz-adv-x="987" d="M177 0v1365h707v-142h-554v-405h539v-142h-539v-534h554v-142h-707zM265 1715l137 91l245 -265l-88 -65z" />
<glyph unicode="&#xc9;" horiz-adv-x="987" d="M177 0v1365h707v-142h-554v-405h539v-142h-539v-534h554v-142h-707zM408 1541l245 265l137 -91l-294 -239z" />
<glyph unicode="&#xca;" horiz-adv-x="987" d="M177 0v1365h707v-142h-554v-405h539v-142h-539v-534h554v-142h-707zM244 1561l285 243l288 -244l-108 -83l-180 155l-179 -155z" />
<glyph unicode="&#xcb;" horiz-adv-x="987" d="M177 0v1365h707v-142h-554v-405h539v-142h-539v-534h554v-142h-707zM232 1634q0 43 31 73q31 31 75 31q42 0 72 -31q31 -30 31 -73q0 -44 -31 -74q-30 -31 -74 -31q-43 0 -73 31q-31 31 -31 74zM621 1634q0 43 31 73q31 31 75 31q42 0 72 -31q31 -30 31 -73 q0 -44 -31 -74q-30 -31 -74 -31q-43 0 -73 31q-31 31 -31 74z" />
<glyph unicode="&#xcc;" horiz-adv-x="508" d="M19 1715l137 91l197 -272l-88 -58zM178 0v1365h153v-1365h-153z" />
<glyph unicode="&#xcd;" horiz-adv-x="508" d="M155 1534l197 272l137 -91l-246 -239zM177 0v1365h153v-1365h-153z" />
<glyph unicode="&#xce;" horiz-adv-x="508" d="M2 1561l251 243l254 -244l-102 -83l-152 155l-152 -155zM178 0v1365h153v-1365h-153z" />
<glyph unicode="&#xcf;" horiz-adv-x="508" d="M11 1634q0 43 31 73q31 31 75 31q42 0 72 -31q31 -30 31 -73q0 -44 -31 -74q-30 -31 -74 -31q-43 0 -73 31q-31 31 -31 74zM178 0v1365h153v-1365h-153zM288 1634q0 43 31 73q31 31 75 31q41 0 72 -31q31 -30 31 -73q0 -44 -31 -74q-30 -31 -74 -31q-43 0 -73 31 q-31 31 -31 74z" />
<glyph unicode="&#xd0;" horiz-adv-x="1297" d="M42 667v137h137v561h279q164 0 282.5 -37.5t218.5 -120.5q235 -197 235 -525q0 -326 -240 -524q-123 -102 -263 -135q-102 -23 -235 -23h-277v667h-137zM332 142h132q241 0 390 125q186 156 186 415q0 125 -48.5 234t-136.5 183q-148 124 -391 124h-132v-419h327v-137 h-327v-525z" />
<glyph unicode="&#xd1;" horiz-adv-x="1571" d="M177 0v1422l1064 -1114v1057h153v-1427l-1064 1114v-1052h-153zM496 1597q73 146 181 146q47 0 132 -43q79 -41 112 -41q50 0 94 87l87 -66q-71 -148 -185 -148q-51 0 -135 43q-82 41 -115 41q-30 0 -53 -32q-10 -14 -30 -56z" />
<glyph unicode="&#xd2;" horiz-adv-x="1626" d="M102 684q0 297 225 509q206 195 498 195q142 0 276.5 -61.5t236.5 -172.5q185 -202 185 -473q0 -148 -61 -284t-172 -237q-205 -185 -478 -185q-150 0 -290.5 63t-242.5 176q-177 196 -177 470zM256 680q0 -243 174 -407q165 -155 383 -155q118 0 229 51t191 143 q136 155 136 373q0 235 -170 403q-160 157 -395 157q-116 0 -224.5 -51t-187.5 -144q-136 -158 -136 -370zM543 1715l137 91l245 -265l-88 -65z" />
<glyph unicode="&#xd3;" horiz-adv-x="1626" d="M102 684q0 297 225 509q206 195 498 195q142 0 276.5 -61.5t236.5 -172.5q185 -202 185 -473q0 -148 -61 -284t-172 -237q-205 -185 -478 -185q-150 0 -290.5 63t-242.5 176q-177 196 -177 470zM256 680q0 -243 174 -407q165 -155 383 -155q118 0 229 51t191 143 q136 155 136 373q0 235 -170 403q-160 157 -395 157q-116 0 -224.5 -51t-187.5 -144q-136 -158 -136 -370zM707 1541l245 265l137 -91l-294 -239z" />
<glyph unicode="&#xd4;" horiz-adv-x="1626" d="M102 684q0 297 225 509q206 195 498 195q142 0 276.5 -61.5t236.5 -172.5q185 -202 185 -473q0 -148 -61 -284t-172 -237q-205 -185 -478 -185q-150 0 -290.5 63t-242.5 176q-177 196 -177 470zM256 680q0 -243 174 -407q165 -155 383 -155q118 0 229 51t191 143 q136 155 136 373q0 235 -170 403q-160 157 -395 157q-116 0 -224.5 -51t-187.5 -144q-136 -158 -136 -370zM526 1561l285 243l288 -244l-108 -83l-180 155l-179 -155z" />
<glyph unicode="&#xd5;" horiz-adv-x="1626" d="M102 684q0 297 225 509q206 195 498 195q142 0 276.5 -61.5t236.5 -172.5q185 -202 185 -473q0 -148 -61 -284t-172 -237q-205 -185 -478 -185q-150 0 -290.5 63t-242.5 176q-177 196 -177 470zM256 680q0 -243 174 -407q165 -155 383 -155q118 0 229 51t191 143 q136 155 136 373q0 235 -170 403q-160 157 -395 157q-116 0 -224.5 -51t-187.5 -144q-136 -158 -136 -370zM530 1597q73 146 181 146q47 0 132 -43q79 -41 112 -41q50 0 94 87l87 -66q-71 -148 -185 -148q-51 0 -135 43q-82 41 -115 41q-30 0 -53 -32q-10 -14 -30 -56z" />
<glyph unicode="&#xd6;" horiz-adv-x="1626" d="M102 684q0 297 225 509q206 195 498 195q142 0 276.5 -61.5t236.5 -172.5q185 -202 185 -473q0 -148 -61 -284t-172 -237q-205 -185 -478 -185q-150 0 -290.5 63t-242.5 176q-177 196 -177 470zM256 680q0 -243 174 -407q165 -155 383 -155q118 0 229 51t191 143 q136 155 136 373q0 235 -170 403q-160 157 -395 157q-116 0 -224.5 -51t-187.5 -144q-136 -158 -136 -370zM514 1634q0 43 31 73q31 31 75 31q42 0 72 -31q31 -30 31 -73q0 -44 -31 -74q-30 -31 -73 -31q-44 0 -74 31q-31 31 -31 74zM903 1634q0 43 31 73q31 31 75 31 q42 0 72 -31q31 -30 31 -73q0 -44 -31 -74q-30 -31 -74 -31q-43 0 -73 31q-31 31 -31 74z" />
<glyph unicode="&#xd7;" d="M177 379l317 317l-317 317l86 86l317 -317l317 317l86 -86l-317 -317l317 -317l-86 -86l-317 317l-317 -317z" />
<glyph unicode="&#xd8;" horiz-adv-x="1626" d="M100 75l160 158q-86 118 -121.5 219t-35.5 227q0 147 58 280.5t166 234.5q209 194 489 194q207 0 386 -117q20 -13 60 -41l158 157l87 -89l-154 -157q94 -123 132.5 -226.5t38.5 -233.5q0 -148 -61 -284t-172 -237q-206 -185 -478 -185q-212 0 -397 122q-24 16 -65 46 l-159 -157zM257 680q0 -158 80 -293q11 -17 31 -47l784 787q-149 118 -338 118q-122 0 -232.5 -51t-188.5 -143q-136 -159 -136 -371zM458 251q65 -60 163 -96.5t197 -36.5q115 0 225.5 51.5t189.5 142.5q137 156 137 368q0 190 -124 357z" />
<glyph unicode="&#xd9;" horiz-adv-x="1328" d="M177 487v878h153v-836q0 -129 15 -187q26 -102 119 -164q91 -60 199 -60q126 0 225 78q81 65 100 173q9 52 9 160v836h153v-878q0 -111 -20.5 -185.5t-68.5 -137.5q-70 -91 -181 -142q-103 -47 -216 -47q-164 0 -298 93q-127 89 -167 227q-22 74 -22 192zM401 1715 l137 91l245 -265l-88 -65z" />
<glyph unicode="&#xda;" horiz-adv-x="1328" d="M177 487v878h153v-836q0 -129 15 -187q26 -102 119 -164q91 -60 199 -60q126 0 225 78q81 65 100 173q9 52 9 160v836h153v-878q0 -111 -20.5 -185.5t-68.5 -137.5q-70 -91 -181 -142q-103 -47 -216 -47q-164 0 -298 93q-127 89 -167 227q-22 74 -22 192zM551 1541 l245 265l137 -91l-294 -239z" />
<glyph unicode="&#xdb;" horiz-adv-x="1328" d="M177 487v878h153v-836q0 -129 15 -187q26 -102 119 -164q91 -60 199 -60q126 0 225 78q81 65 100 173q9 52 9 160v836h153v-878q0 -111 -20.5 -185.5t-68.5 -137.5q-70 -91 -181 -142q-103 -47 -216 -47q-164 0 -298 93q-127 89 -167 227q-22 74 -22 192zM377 1561 l285 243l288 -244l-108 -83l-180 155l-179 -155z" />
<glyph unicode="&#xdc;" horiz-adv-x="1328" d="M177 487v878h153v-836q0 -129 15 -187q26 -102 119 -164q91 -60 199 -60q126 0 225 78q81 65 100 173q9 52 9 160v836h153v-878q0 -111 -20.5 -185.5t-68.5 -137.5q-70 -91 -181 -142q-103 -47 -216 -47q-164 0 -298 93q-127 89 -167 227q-22 74 -22 192zM365 1634 q0 43 31 73q31 31 75 31q42 0 72 -31q31 -30 31 -73q0 -44 -31 -74q-30 -31 -74 -31q-43 0 -73 31q-31 31 -31 74zM754 1634q0 43 31 73q31 31 75 31q42 0 72 -31q31 -30 31 -73q0 -44 -31 -74q-30 -31 -74 -31q-43 0 -73 31q-31 31 -31 74z" />
<glyph unicode="&#xdd;" horiz-adv-x="1081" d="M14 1365h176l348 -609l353 609h177l-454 -778v-587h-153v587zM429 1541l245 265l137 -91l-294 -239z" />
<glyph unicode="&#xde;" horiz-adv-x="937" d="M177 0v1365h153v-191h95q162 0 249 -36q124 -52 183 -176q38 -81 38 -172q0 -81 -30 -155t-82 -123q-112 -105 -320 -105h-133v-407h-153zM330 546h124q144 0 218 67q73 67 73 178q0 116 -75 180q-73 62 -227 62h-113v-487z" />
<glyph unicode="&#xdf;" horiz-adv-x="1073" d="M60 716v135h79v282q0 173 78 267q46 54 121 85.5t159 31.5q167 0 268 -112q85 -95 85 -230q0 -102 -59 -182q-35 -49 -94 -80q87 -33 146 -89q68 -64 107 -157.5t39 -191.5q0 -158 -95 -285q-150 -199 -424 -214v143q135 10 223 74q147 107 147 287q0 127 -78 222 q-71 86 -203 116q-29 6 -89 14v132q98 5 148 42q38 28 60.5 76t22.5 100q0 97 -69 156q-54 47 -138 47q-62 0 -112.5 -28t-70.5 -74q-26 -59 -26 -217v-1066h-146v716h-79z" />
<glyph unicode="&#xe0;" horiz-adv-x="1073" d="M85 427q0 215 135 339q115 105 272 105q176 0 296 -141v121h146v-851h-146v118q-120 -143 -293 -143q-190 0 -309 145q-101 122 -101 307zM234 426q0 -148 89 -239q78 -80 193 -80q134 0 217 106q65 83 65 216q0 150 -89 232q-84 78 -199 78q-120 0 -202 -95 q-74 -86 -74 -218zM292 1275l151 68l216 -296l-91 -51z" />
<glyph unicode="&#xe1;" horiz-adv-x="1073" d="M85 427q0 215 135 339q115 105 272 105q176 0 296 -141v121h146v-851h-146v118q-120 -143 -293 -143q-190 0 -309 145q-101 122 -101 307zM234 426q0 -148 89 -239q78 -80 193 -80q134 0 217 106q65 83 65 216q0 150 -89 232q-84 78 -199 78q-120 0 -202 -95 q-74 -86 -74 -218zM435 1047l216 296l151 -68l-276 -279z" />
<glyph unicode="&#xe2;" horiz-adv-x="1073" d="M85 427q0 215 135 339q115 105 272 105q176 0 296 -141v121h146v-851h-146v118q-120 -143 -293 -143q-190 0 -309 145q-101 122 -101 307zM234 426q0 -148 89 -239q78 -80 193 -80q134 0 217 106q65 83 65 216q0 150 -89 232q-84 78 -199 78q-120 0 -202 -95 q-74 -86 -74 -218zM260 1077l282 266l285 -266l-105 -80l-180 169l-179 -170z" />
<glyph unicode="&#xe3;" horiz-adv-x="1073" d="M85 427q0 215 135 339q115 105 272 105q176 0 296 -141v121h146v-851h-146v118q-120 -143 -293 -143q-190 0 -309 145q-101 122 -101 307zM234 426q0 -148 89 -239q78 -80 193 -80q134 0 217 106q65 83 65 216q0 150 -89 232q-84 78 -199 78q-120 0 -202 -95 q-74 -86 -74 -218zM254 1106q19 52 51 87q54 59 124 59q57 0 128 -44q66 -40 95 -40q53 0 96 87l85 -66q-20 -52 -51 -85q-60 -63 -130 -63q-43 0 -116 42q-76 44 -111 44q-58 0 -86 -90z" />
<glyph unicode="&#xe4;" horiz-adv-x="1073" d="M85 427q0 215 135 339q115 105 272 105q176 0 296 -141v121h146v-851h-146v118q-120 -143 -293 -143q-190 0 -309 145q-101 122 -101 307zM234 426q0 -148 89 -239q78 -80 193 -80q134 0 217 106q65 83 65 216q0 150 -89 232q-84 78 -199 78q-120 0 -202 -95 q-74 -86 -74 -218zM264 1146q0 43 30 73t73 30q42 0 72 -30t30 -72q0 -43 -30 -73q-31 -30 -73 -30t-72 30t-30 72zM619 1146q0 43 30 73q31 30 74 30q41 0 71 -30t30 -72q0 -43 -30 -73t-72 -30q-43 0 -73 30t-30 72z" />
<glyph unicode="&#xe5;" horiz-adv-x="1073" d="M85 427q0 215 135 339q115 105 272 105q176 0 296 -141v121h146v-851h-146v118q-120 -143 -293 -143q-190 0 -309 145q-101 122 -101 307zM234 426q0 -148 89 -239q78 -80 193 -80q134 0 217 106q65 83 65 216q0 150 -89 232q-84 78 -199 78q-120 0 -202 -95 q-74 -86 -74 -218zM358 1176q0 77 54 131q55 54 133 54q75 0 130 -54q54 -54 54 -131t-54 -132q-55 -54 -132 -54t-131 54q-54 56 -54 132zM458 1176q0 -36 25 -61t61 -25q35 0 60 25t25 60q0 37 -25 61q-25 25 -62 25q-34 0 -59 -25t-25 -60z" />
<glyph unicode="&#xe6;" horiz-adv-x="1581" d="M85 250q0 129 109 214q87 69 241 69q106 0 184 -38q25 -12 61 -35q-2 109 -33 171q-55 108 -207 108q-109 0 -264 -52v138q166 46 272 46q137 0 231 -72q56 -42 82 -100q32 54 82 91q108 81 247 81q153 0 263 -94q144 -122 143 -382h-666q6 -87 37 -146q35 -64 96 -102 q64 -39 137 -39q106 0 185 75q35 33 76 104l125 -73q-53 -87 -108 -136q-116 -103 -278 -103q-136 0 -240 75q-54 39 -92 96q-38 -64 -82 -99q-91 -72 -238 -72q-188 0 -283 92q-80 78 -80 183zM228 252q0 -66 63 -107q59 -38 155 -38q115 0 175 53q51 44 51 100 q0 60 -61 101q-60 40 -166 40q-108 0 -170 -52q-47 -41 -47 -97zM841 519h499q-13 67 -42 111q-72 108 -207 108q-140 0 -210 -112q-25 -39 -40 -107z" />
<glyph unicode="&#xe7;" horiz-adv-x="892" d="M85 419q0 193 137 328q125 123 316 123q140 0 264 -81v-192q-67 75 -117 102q-71 39 -151 39q-136 0 -223 -101q-77 -90 -77 -215q0 -131 84 -223q84 -91 214 -91q100 0 184 59q36 26 91 90v-193q-136 -89 -271 -89q-217 0 -348 159q-103 125 -103 285zM306 -363l172 267 l136 -55l-207 -263z" />
<glyph unicode="&#xe8;" horiz-adv-x="986" d="M85 420q0 207 121 332q114 118 291 118q160 0 271 -100q134 -120 134 -347v-28h-663q4 -87 36 -147q36 -67 98 -104t136 -37q108 0 181 71q35 33 81 108l123 -69q-51 -89 -105 -137q-118 -105 -285 -105q-204 0 -324 148q-95 118 -95 297zM248 518h500q-14 71 -49 119 q-75 101 -200 101q-131 0 -209 -113q-31 -46 -42 -107zM255 1275l151 68l216 -296l-91 -51z" />
<glyph unicode="&#xe9;" horiz-adv-x="986" d="M85 420q0 207 121 332q114 118 291 118q160 0 271 -100q134 -120 134 -347v-28h-663q4 -87 36 -147q36 -67 98 -104t136 -37q108 0 181 71q35 33 81 108l123 -69q-51 -89 -105 -137q-118 -105 -285 -105q-204 0 -324 148q-95 118 -95 297zM248 518h500q-14 71 -49 119 q-75 101 -200 101q-131 0 -209 -113q-31 -46 -42 -107zM405 1047l216 296l151 -68l-276 -279z" />
<glyph unicode="&#xea;" horiz-adv-x="986" d="M85 420q0 207 121 332q114 118 291 118q160 0 271 -100q134 -120 134 -347v-28h-663q4 -87 36 -147q36 -67 98 -104t136 -37q108 0 181 71q35 33 81 108l123 -69q-51 -89 -105 -137q-118 -105 -285 -105q-204 0 -324 148q-95 118 -95 297zM231 1077l282 266l285 -266 l-105 -80l-180 169l-179 -170zM248 518h500q-14 71 -49 119q-75 101 -200 101q-131 0 -209 -113q-31 -46 -42 -107z" />
<glyph unicode="&#xeb;" horiz-adv-x="986" d="M85 420q0 207 121 332q114 118 291 118q160 0 271 -100q134 -120 134 -347v-28h-663q4 -87 36 -147q36 -67 98 -104t136 -37q108 0 181 71q35 33 81 108l123 -69q-51 -89 -105 -137q-118 -105 -285 -105q-204 0 -324 148q-95 118 -95 297zM234 1146q0 43 30 73t73 30 q42 0 72 -30t30 -72q0 -43 -30 -73q-31 -30 -73 -30t-72 30t-30 72zM248 518h500q-14 71 -49 119q-75 101 -200 101q-131 0 -209 -113q-31 -46 -42 -107zM589 1146q0 43 30 73q31 30 74 30q41 0 71 -30t30 -72q0 -43 -30 -73t-72 -30q-43 0 -73 30t-30 72z" />
<glyph unicode="&#xec;" horiz-adv-x="425" d="M-25 1275l151 68l175 -296l-84 -51zM140 0v851h146v-851h-146z" />
<glyph unicode="&#xed;" horiz-adv-x="425" d="M125 1047l175 296l151 -68l-242 -279zM140 0v851h146v-851h-146z" />
<glyph unicode="&#xee;" horiz-adv-x="425" d="M-30 1077l241 266l244 -266l-98 -80l-146 169l-145 -170zM139 0v851h146v-851h-146z" />
<glyph unicode="&#xef;" horiz-adv-x="425" d="M-18 1148q0 41 29 69q29 29 70 29q40 0 69 -29q29 -28 29 -69t-29 -70t-70 -29t-69 29q-29 29 -29 70zM140 0v851h146v-851h-146zM247 1148q0 41 29 69q29 29 71 29q40 0 68 -29q29 -28 29 -69t-29 -70q-28 -29 -69 -29t-70 29t-29 70z" />
<glyph unicode="&#xf0;" horiz-adv-x="1068" d="M85 421q0 198 140 328q132 122 316 122q93 0 162 -35q46 -22 108 -94q-33 119 -69 189q-109 204 -222 292l-221 -114l-91 84l202 105q-92 62 -255 112l59 89q177 -46 322 -136l226 113l84 -82l-210 -110q135 -123 230 -309q59 -116 90 -267q28 -133 28 -256 q0 -240 -148 -368q-126 -109 -299 -109q-213 0 -345 153q-107 123 -107 293zM234 423q0 -143 90 -232q84 -84 210 -84q147 0 235 110q67 82 67 209q0 141 -90 229q-86 84 -218 84q-140 0 -226 -110q-68 -86 -68 -206z" />
<glyph unicode="&#xf1;" horiz-adv-x="960" d="M139 0v851h146v-103q40 49 72 72q71 51 172 51q77 0 142.5 -31.5t100.5 -85.5q48 -73 48 -226v-528h-146v503q0 119 -28 165q-43 71 -150 71q-128 0 -176 -101q-35 -72 -35 -213v-425h-146zM176 1106q19 52 51 87q54 59 124 59q57 0 128 -44q66 -40 95 -40q53 0 96 87 l85 -66q-20 -52 -51 -85q-60 -63 -130 -63q-43 0 -116 42q-76 44 -111 44q-58 0 -86 -90z" />
<glyph unicode="&#xf2;" horiz-adv-x="1068" d="M85 426q0 191 140 323q128 121 317 121q193 0 326 -146q115 -126 115 -301q0 -204 -149 -336q-126 -112 -299 -112q-210 0 -344 156q-106 125 -106 295zM234 422q0 -142 89 -231q84 -84 210 -84q147 0 235 109q66 83 66 209q0 141 -90 229q-85 84 -217 84 q-140 0 -226 -110q-67 -85 -67 -206zM276 1275l151 68l216 -296l-91 -51z" />
<glyph unicode="&#xf3;" horiz-adv-x="1068" d="M85 426q0 191 140 323q128 121 317 121q193 0 326 -146q115 -126 115 -301q0 -204 -149 -336q-126 -112 -299 -112q-210 0 -344 156q-106 125 -106 295zM234 422q0 -142 89 -231q84 -84 210 -84q147 0 235 109q66 83 66 209q0 141 -90 229q-85 84 -217 84 q-140 0 -226 -110q-67 -85 -67 -206zM433 1047l216 296l151 -68l-276 -279z" />
<glyph unicode="&#xf4;" horiz-adv-x="1068" d="M85 426q0 191 140 323q128 121 317 121q193 0 326 -146q115 -126 115 -301q0 -204 -149 -336q-126 -112 -299 -112q-210 0 -344 156q-106 125 -106 295zM234 422q0 -142 89 -231q84 -84 210 -84q147 0 235 109q66 83 66 209q0 141 -90 229q-85 84 -217 84 q-140 0 -226 -110q-67 -85 -67 -206zM258 1077l282 266l285 -266l-105 -80l-180 169l-179 -170z" />
<glyph unicode="&#xf5;" horiz-adv-x="1068" d="M85 426q0 191 140 323q128 121 317 121q193 0 326 -146q115 -126 115 -301q0 -204 -149 -336q-126 -112 -299 -112q-210 0 -344 156q-106 125 -106 295zM234 422q0 -142 89 -231q84 -84 210 -84q147 0 235 109q66 83 66 209q0 141 -90 229q-85 84 -217 84 q-140 0 -226 -110q-67 -85 -67 -206zM262 1106q19 52 51 87q54 59 124 59q57 0 128 -44q66 -40 95 -40q53 0 96 87l85 -66q-20 -52 -51 -85q-60 -63 -130 -63q-43 0 -116 42q-76 44 -111 44q-58 0 -86 -90z" />
<glyph unicode="&#xf6;" horiz-adv-x="1068" d="M85 426q0 191 140 323q128 121 317 121q193 0 326 -146q115 -126 115 -301q0 -204 -149 -336q-126 -112 -299 -112q-210 0 -344 156q-106 125 -106 295zM234 422q0 -142 89 -231q84 -84 210 -84q147 0 235 109q66 83 66 209q0 141 -90 229q-85 84 -217 84 q-140 0 -226 -110q-67 -85 -67 -206zM254 1146q0 43 30 73t73 30q42 0 72 -30t30 -72q0 -43 -30 -73q-31 -30 -73 -30t-72 30t-30 72zM609 1146q0 43 30 73q31 30 74 30q41 0 71 -30t30 -72q0 -43 -30 -73t-72 -30q-43 0 -73 30t-30 72z" />
<glyph unicode="&#xf7;" d="M98 633v126h964v-126h-964zM484 428q0 40 28 68q29 28 69 28q39 0 67 -28t28 -68t-28 -68t-68 -28t-68 28q-28 29 -28 68zM484 965q0 40 28 68q29 28 69 28q39 0 67 -28t28 -68t-28 -68t-68 -28t-68 28q-28 29 -28 68z" />
<glyph unicode="&#xf8;" horiz-adv-x="1068" d="M53 31l121 122q-89 118 -89 273q0 192 140 324q129 120 309 120q151 0 270 -90l121 121l82 -81l-121 -121q42 -41 69.5 -119t27.5 -160q0 -200 -149 -333q-126 -112 -298 -112q-148 0 -278 93l-123 -121zM234 419q0 -94 44 -168l425 433q-69 54 -170 54q-146 0 -232 -109 q-67 -86 -67 -210zM357 165q65 -58 177 -58q145 0 233 110q67 83 67 205q0 107 -50 180z" />
<glyph unicode="&#xf9;" horiz-adv-x="953" d="M139 338v513h146v-497q0 -110 26 -159q22 -41 66.5 -64.5t98.5 -23.5q55 0 99 23.5t66 64.5q26 49 26 159v497h146v-513q0 -121 -30 -185q-42 -92 -137 -140q-76 -38 -170 -38q-164 0 -260 107q-51 57 -66 126q-11 54 -11 130zM218 1275l151 68l216 -296l-91 -51z" />
<glyph unicode="&#xfa;" horiz-adv-x="953" d="M139 338v513h146v-497q0 -110 26 -159q22 -41 66.5 -64.5t98.5 -23.5q55 0 99 23.5t66 64.5q26 49 26 159v497h146v-513q0 -121 -30 -185q-42 -92 -137 -140q-76 -38 -170 -38q-164 0 -260 107q-51 57 -66 126q-11 54 -11 130zM368 1047l216 296l151 -68l-276 -279z" />
<glyph unicode="&#xfb;" horiz-adv-x="953" d="M139 338v513h146v-497q0 -110 26 -159q22 -41 66.5 -64.5t98.5 -23.5q55 0 99 23.5t66 64.5q26 49 26 159v497h146v-513q0 -121 -30 -185q-42 -92 -137 -140q-76 -38 -170 -38q-164 0 -260 107q-51 57 -66 126q-11 54 -11 130zM193 1077l282 266l285 -266l-105 -80 l-180 169l-179 -170z" />
<glyph unicode="&#xfc;" horiz-adv-x="953" d="M139 338v513h146v-497q0 -110 26 -159q22 -41 66.5 -64.5t98.5 -23.5q55 0 99 23.5t66 64.5q26 49 26 159v497h146v-513q0 -121 -30 -185q-42 -92 -137 -140q-76 -38 -170 -38q-164 0 -260 107q-51 57 -66 126q-11 54 -11 130zM196 1146q0 43 30 73t73 30q42 0 72 -30 t30 -72q0 -43 -30 -73q-31 -30 -73 -30t-72 30t-30 72zM551 1146q0 43 30 73q31 30 74 30q41 0 71 -30t30 -72q0 -43 -30 -73t-72 -30q-43 0 -73 30t-30 72z" />
<glyph unicode="&#xfd;" horiz-adv-x="942" d="M16 851h169l300 -609l275 609h165l-628 -1330h-165l275 560zM362 1047l216 296l151 -68l-276 -279z" />
<glyph unicode="&#xfe;" horiz-adv-x="1073" d="M139 -479v1973h146v-764q117 140 294 140q189 0 308 -144q101 -122 101 -307q0 -214 -135 -339q-115 -105 -270 -105q-176 0 -298 144v-598h-146zM277 421q0 -154 89 -236q83 -78 194 -78q125 0 205 95q74 86 74 221q0 143 -89 236q-76 79 -196 79q-129 0 -212 -105 q-65 -83 -65 -212z" />
<glyph unicode="&#xff;" horiz-adv-x="942" d="M16 851h169l300 -609l275 609h165l-628 -1330h-165l275 560zM191 1146q0 43 30 73t73 30q42 0 72 -30t30 -72q0 -43 -30 -73q-31 -30 -73 -30t-72 30t-30 72zM546 1146q0 43 30 73q31 30 74 30q41 0 71 -30t30 -72q0 -43 -30 -73t-72 -30q-43 0 -73 30t-30 72z" />
<glyph unicode="&#x152;" horiz-adv-x="2163" d="M102 677q0 141 57 275.5t159 235.5q201 200 493 200q241 0 418 -146q64 -53 133 -145v268h698v-142h-545v-407h530v-142h-530v-532h545v-142h-698v262q-207 -287 -545 -287q-156 0 -300.5 67t-247.5 188q-167 195 -167 447zM256 680q0 -245 179 -412q161 -150 372 -150 q117 0 227.5 51t190.5 141q137 155 137 373q0 245 -184 416q-158 146 -376 146q-112 0 -219.5 -51t-187.5 -143q-139 -159 -139 -371z" />
<glyph unicode="&#x153;" horiz-adv-x="1742" d="M85 419q0 98 41 188t114 154q124 109 297 109q160 0 281 -99q51 -42 86 -103q31 62 83 107q109 95 260 95q159 0 269 -91q100 -82 132 -243q10 -53 10 -109v-30h-670q4 -84 39 -147q37 -68 100 -105.5t139 -37.5q162 0 257 182l123 -72q-140 -242 -390 -242 q-147 0 -260 91q-60 48 -92 113q-38 -62 -86 -101q-123 -103 -289 -103q-194 0 -326 143q-118 127 -118 301zM234 420q0 -145 94 -235q82 -78 202 -78q156 0 243 118q59 79 59 195q0 146 -93 237q-81 80 -213 80q-138 0 -221 -105q-71 -89 -71 -212zM1000 520h503 q-13 68 -42 111q-71 106 -209 106q-199 0 -252 -217z" />
<glyph unicode="&#x178;" horiz-adv-x="1081" d="M14 1365h176l348 -609l353 609h177l-454 -778v-587h-153v587zM242 1634q0 43 31 73q31 31 75 31q42 0 72 -31q31 -30 31 -73q0 -44 -31 -74q-30 -31 -74 -31q-43 0 -73 31q-31 31 -31 74zM631 1634q0 43 31 73q31 31 75 31q42 0 72 -31q31 -30 31 -73q0 -44 -31 -74 q-30 -31 -74 -31q-43 0 -73 31q-31 31 -31 74z" />
<glyph unicode="&#x2c6;" horiz-adv-x="1024" d="M229 1077l282 266l285 -266l-105 -80l-180 169l-179 -170z" />
<glyph unicode="&#x2dc;" horiz-adv-x="1024" d="M222 1106q19 52 51 87q54 59 124 59q57 0 128 -44q66 -40 95 -40q53 0 96 87l85 -66q-20 -52 -51 -85q-60 -63 -130 -63q-43 0 -116 42q-76 44 -111 44q-58 0 -86 -90z" />
<glyph unicode="&#x2000;" horiz-adv-x="917" />
<glyph unicode="&#x2001;" horiz-adv-x="1835" />
<glyph unicode="&#x2002;" horiz-adv-x="917" />
<glyph unicode="&#x2003;" horiz-adv-x="1835" />
<glyph unicode="&#x2004;" horiz-adv-x="611" />
<glyph unicode="&#x2005;" horiz-adv-x="458" />
<glyph unicode="&#x2006;" horiz-adv-x="305" />
<glyph unicode="&#x2007;" horiz-adv-x="305" />
<glyph unicode="&#x2008;" horiz-adv-x="229" />
<glyph unicode="&#x2009;" horiz-adv-x="367" />
<glyph unicode="&#x200a;" horiz-adv-x="101" />
<glyph unicode="&#x2010;" horiz-adv-x="371" d="M0 371v131h371v-131h-371z" />
<glyph unicode="&#x2011;" horiz-adv-x="371" d="M0 371v131h371v-131h-371z" />
<glyph unicode="&#x2012;" horiz-adv-x="371" d="M0 371v131h371v-131h-371z" />
<glyph unicode="&#x2013;" d="M240 371v131h681v-131h-681z" />
<glyph unicode="&#x2014;" horiz-adv-x="1114" d="M0 371v131h1114v-131h-1114z" />
<glyph unicode="&#x2018;" horiz-adv-x="535" d="M116 972l206 462l97 -39l-169 -472z" />
<glyph unicode="&#x2019;" horiz-adv-x="517" d="M94 962l170 472l134 -49l-206 -462z" />
<glyph unicode="&#x201a;" horiz-adv-x="517" d="M94 -267l170 472l134 -49l-206 -462z" />
<glyph unicode="&#x201c;" horiz-adv-x="836" d="M116 972l206 462l97 -39l-169 -472zM416 972l206 462l97 -39l-169 -472z" />
<glyph unicode="&#x201d;" horiz-adv-x="835" d="M116 962l170 472l133 -49l-205 -462zM416 962l170 472l133 -49l-205 -462z" />
<glyph unicode="&#x201e;" horiz-adv-x="835" d="M116 -272l170 472l133 -49l-205 -462zM416 -272l170 472l133 -49l-205 -462z" />
<glyph unicode="&#x2022;" horiz-adv-x="1365" d="M401 694q0 120 84 202q86 82 204 82q113 0 196 -83q84 -83 84 -201t-83 -201t-201 -83q-116 0 -199 82q-85 84 -85 202z" />
<glyph unicode="&#x2026;" horiz-adv-x="1527" d="M154 81q0 42 29 71q30 29 73 29q40 0 70 -29q29 -30 29 -71q0 -42 -29 -72q-29 -29 -71 -29q-43 0 -72 29q-29 30 -29 72zM663 81q0 42 29 71q30 29 73 29q40 0 70 -29q29 -30 29 -71q0 -42 -29 -72q-29 -29 -71 -29q-43 0 -72 29q-29 30 -29 72zM1173 81q0 41 30 71 q29 29 72 29q40 0 70 -29q29 -30 29 -71q0 -42 -29 -72q-29 -29 -71 -29t-71 29q-30 30 -30 72z" />
<glyph unicode="&#x202f;" horiz-adv-x="367" />
<glyph unicode="&#x2039;" horiz-adv-x="578" d="M75 437l305 384l96 -75l-244 -309l244 -300l-95 -76z" />
<glyph unicode="&#x203a;" horiz-adv-x="578" d="M102 137l244 300l-244 309l95 75l306 -384l-306 -376z" />
<glyph unicode="&#x205f;" horiz-adv-x="458" />
<glyph unicode="&#x2122;" horiz-adv-x="1476" d="M8 1272v93h470v-93h-186v-685h-99v685h-185zM552 587l134 828l293 -646l301 646l125 -828h-96l-70 528l-261 -567l-256 567l-74 -528h-96z" />
<glyph unicode="&#xe000;" horiz-adv-x="850" d="M0 0v850h850v-850h-850z" />
</font>
</defs>
</svg>
